#tb 0: 1/25
#media_type 0: video
#codec_id 0: rawvideo
#dimensions 0: 1920x1080
#sar 0: 0/1
0,          0,          0,        1,  3110400, 0x7d014690
0,          1,          1,        1,  3110400, 0xe02cd173
0,          2,          2,        1,  3110400, 0x2f9794c5
0,          3,          3,        1,  3110400, 0x5df433de
0,          4,          4,        1,  3110400, 0xae409f1d
0,          5,          5,        1,  3110400, 0xb4886e82
0,          6,          6,        1,  3110400, 0x636ee735
0,          7,          7,        1,  3110400, 0x4d340b3f
0,          8,          8,        1,  3110400, 0xf11ce983
0,          9,          9,        1,  3110400, 0x2a1b2094
0,         10,         10,        1,  3110400, 0x1dee485f
0,         11,         11,        1,  3110400, 0xac329574
0,         12,         12,        1,  3110400, 0xa0f11f30
0,         13,         13,        1,  3110400, 0x99d827d3
0,         14,         14,        1,  3110400, 0xa0b75c5b
0,         15,         15,        1,  3110400, 0xf3f169d8
0,         16,         16,        1,  3110400, 0xde71892b
0,         17,         17,        1,  3110400, 0xf1129a0e
0,         18,         18,        1,  3110400, 0x02150e54
0,         19,         19,        1,  3110400, 0xc79d65a4
0,         20,         20,        1,  3110400, 0x708fc8fb
0,         21,         21,        1,  3110400, 0x5431050b
0,         22,         22,        1,  3110400, 0x237faa60
0,         23,         23,        1,  3110400, 0xb05ffa7c
